# xmcd
#
# Track frame offsets:
#	150
#	13789
#	31210
#	43724
#	61909
#	75796
#	88569
#	101637
#	114342
#
# Disc length: 1684 seconds
# Revision: 0
# Processed by: cddbd v1.5.2PL0 Copyright (c) Steve Scherf et al.
# Submitted via: dBpowerAMP V12.0
#
DISCID=5d069209
DTITLE=The Earl Brothers - Outlaw Hillbilly
DYEAR=2012
DGENRE=Country
TTITLE0=Arkansas Line
TTITLE1=Hard Times Down the Road
TTITLE2=Soldier
TTITLE3=Rebels Romp
TTITLE4=Hey Hey
TTITLE5=Don't Think About Me Unkindly
TTITLE6=Cheater
TTITLE7=Bad Man
TTITLE8=Bone Down
EXTD=
EXTT0=
EXTT1=
EXTT2=
EXTT3=
EXTT4=
EXTT5=
EXTT6=
EXTT7=
EXTT8=
PLAYORDER=
